<svg width="200" height="68" viewBox="0 0 200 68" fill="none" xmlns="http://www.w3.org/2000/svg">
<g opacity="0.2">
<path d="M82.9662 49.4881C83.3152 49.4881 83.6642 49.3833 83.9783 49.3135V51.7582C83.3501 52.0027 82.5823 52.1424 81.8145 52.1424C80.4185 52.1424 79.3017 51.5836 78.7433 50.3612C77.2426 51.5836 75.3579 52.3519 72.9498 52.3519C70.1578 52.3519 67.5752 50.8153 67.5752 47.6371C67.5752 43.6907 71.2048 42.5032 74.4156 42.5032C75.7418 42.5032 77.2077 42.6778 78.3943 42.9572V42.3984C78.3943 40.4776 76.9983 39.1505 74.3807 39.1505C72.1122 39.1505 70.2276 39.7093 68.8665 40.3379V37.1947C70.088 36.7756 72.2867 36.1819 74.7297 36.1819C79.0574 36.1819 81.8145 38.2424 81.8145 42.8874V48.3705C81.8494 49.2087 82.338 49.4881 82.9662 49.4881ZM71.1001 47.3926C71.1001 48.8944 72.4263 49.6627 73.9619 49.6627C75.6022 49.6627 77.1728 49.069 78.3943 47.8467V45.2623C77.452 45.0876 76.1606 44.8781 75.0787 44.8781C73.1592 44.8781 71.1001 45.4718 71.1001 47.3926Z" fill="black"/>
<path d="M93.8552 36.1469C95.5653 36.1469 97.2405 36.531 98.5667 37.3343V40.4775C97.4499 39.6743 95.8794 39.1853 94.3089 39.1853C91.5867 39.1853 88.8644 40.6172 88.8644 44.2494C88.8644 47.7419 91.5169 49.3135 94.274 49.3135C95.9143 49.3135 97.5197 48.8245 98.7412 48.126V51.3042C97.2754 52.0027 95.6002 52.3519 93.6807 52.3519C89.5973 52.3519 85.4093 49.8723 85.4093 44.3891C85.3744 38.6265 89.7718 36.1469 93.8552 36.1469Z" fill="black"/>
<path d="M116.226 49.4881C116.575 49.4881 116.924 49.3833 117.238 49.3135V51.7582C116.61 52.0027 115.842 52.1424 115.074 52.1424C113.678 52.1424 112.562 51.5836 112.003 50.3612C110.502 51.5836 108.618 52.3519 106.21 52.3519C103.418 52.3519 100.835 50.8153 100.835 47.6371C100.835 43.6907 104.465 42.5032 107.676 42.5032C109.002 42.5032 110.468 42.6778 111.654 42.9572V42.3984C111.654 40.4776 110.258 39.1505 107.641 39.1505C105.372 39.1505 103.488 39.7093 102.126 40.3379V37.1947C103.348 36.7756 105.547 36.1819 107.99 36.1819C112.317 36.1819 115.074 38.2424 115.074 42.8874V48.3705C115.109 49.2087 115.633 49.4881 116.226 49.4881ZM104.395 47.3926C104.395 48.8944 105.721 49.6627 107.257 49.6627C108.897 49.6627 110.468 49.069 111.689 47.8467V45.2623C110.747 45.0876 109.455 44.8781 108.374 44.8781C106.419 44.8781 104.395 45.4718 104.395 47.3926Z" fill="black"/>
<path d="M135.212 29.5112V51.8978H132.141V49.4531C130.954 50.9549 129.139 52.282 126.278 52.282C121.636 52.282 118.669 48.6149 118.669 44.1795C118.669 39.779 121.636 36.077 126.278 36.077C128.965 36.077 130.745 37.2645 131.792 38.4868V29.5112H135.212ZM126.871 39.1504C124.114 39.1504 122.124 41.2109 122.124 44.2494C122.124 47.2529 124.149 49.3134 126.871 49.3134C129.279 49.3134 131.024 47.7767 131.757 46.1004V42.3634C131.024 40.6871 129.279 39.1504 126.871 39.1504Z" fill="black"/>
<path d="M146.275 36.1469C152.383 36.1469 154.477 41.0712 153.5 45.5066H141.982C142.366 48.2657 145.054 49.4182 147.846 49.4182C149.695 49.4182 151.406 48.9641 152.697 48.3355V51.2692C151.301 51.9327 149.346 52.3169 147.218 52.3169C142.506 52.3169 138.527 49.6277 138.527 44.2144C138.527 38.6614 142.75 36.1469 146.275 36.1469ZM146.45 38.9757C144.146 38.9757 142.087 40.3378 141.948 42.9222H150.428C150.638 41.5951 149.8 38.9757 146.45 38.9757Z" fill="black"/>
<path d="M156.99 51.8978V36.5659H160.026V38.4868C160.864 37.5438 162.644 36.1469 165.122 36.1469C167.425 36.1469 169.03 37.0898 169.903 38.5916C171.229 37.2644 173.044 36.1469 175.278 36.1469C179.326 36.1469 181.106 39.1504 181.106 42.3285V51.9327H177.686V42.4333C177.686 40.4426 176.499 39.2202 174.649 39.2202C172.974 39.2202 171.648 40.3378 170.845 41.2808C170.88 41.63 170.915 41.9792 170.915 42.3285V51.9327H167.495V42.4333C167.495 40.4426 166.308 39.2202 164.458 39.2202C162.609 39.2202 161.213 40.5473 160.41 41.5951V51.9327H156.99V51.8978Z" fill="black"/>
<path d="M196.183 36.5659H199.743L192.553 53.9933C190.878 57.9747 188.714 59.3368 186.376 59.3368C185.713 59.3368 185.05 59.232 184.352 59.0923V56.1936C184.875 56.3682 185.399 56.4031 185.922 56.4031C187.597 56.4031 188.819 55.2157 189.726 52.8408L190.04 52.0725L182.746 36.6008H186.376L191.541 48.1609L196.183 36.5659Z" fill="black"/>
<path d="M72.1121 2.6543V11.3854C73.2289 10.2329 74.9739 9.28995 77.0679 9.28995C80.9418 9.28995 83.3849 11.9093 83.3849 15.5414V25.0409H79.9646V15.9955C79.9646 13.5158 78.429 12.3284 76.4048 12.3284C74.4504 12.3284 72.9846 13.6555 72.1121 14.8779V25.0409H68.6918V2.6543H72.1121Z" fill="black"/>
<path d="M92.738 4.22595V9.67419H98.2871V12.6777H92.738V19.6976C92.738 21.7232 93.6803 22.3867 95.6347 22.3867C96.7515 22.3867 97.7636 22.1772 98.7408 21.793V24.7267C97.5891 25.1458 96.1233 25.3903 94.6226 25.3903C91.6561 25.3903 89.3526 23.9234 89.3526 20.3262V12.6428H86.5955V9.63927H89.3526V5.06414L92.738 4.22595Z" fill="black"/>
<path d="M102.685 25.041V9.70913H105.721V11.63C106.559 10.687 108.339 9.29004 110.817 9.29004C113.12 9.29004 114.725 10.233 115.598 11.7348C116.924 10.4076 118.739 9.29004 120.972 9.29004C125.021 9.29004 126.801 12.2935 126.801 15.4717V25.0759H123.381V15.5415C123.381 13.5508 122.194 12.3285 120.344 12.3285C118.669 12.3285 117.343 13.4461 116.54 14.389C116.575 14.7383 116.61 15.0875 116.61 15.4368V25.041H113.19V15.5415C113.19 13.5508 112.003 12.3285 110.153 12.3285C108.304 12.3285 106.908 13.6556 106.105 14.7033V25.041H102.685Z" fill="black"/>
<path d="M135.212 2.6543H131.791V25.0409H135.212V2.6543Z" fill="black"/>
<path d="M27.9283 0.0349246L27.6491 0L0.880554 2.79396V51.8979L27.6491 67.8235L54.4176 51.8979V2.79396L27.9283 0.0349246ZM50.9276 49.9072L27.6491 63.7722L4.37058 49.9072V29.7906L27.5444 43.5858L27.5793 46.1004L11.6996 36.6359L11.6647 39.0806L27.6142 48.6848L27.6491 51.2343L11.6996 41.6999L11.6647 44.1446L27.6142 53.7489L43.7381 44.1097V41.665H43.7032V40.8268V39.814V33.7371L50.8927 29.4414V49.9072H50.9276ZM50.8927 26.8221L44.5408 30.559L41.6092 32.3052L27.5793 23.9932L27.5444 26.4379L39.5152 33.5276L39.4105 33.5974L39.1662 33.7371L37.4561 34.7499L27.5793 28.8826L27.5444 31.3273L35.362 35.9723L33.5123 37.1947L33.4774 37.2296L27.5793 33.7371L27.5444 36.1818L31.4183 38.4519L27.4746 40.8268L4.44038 27.1015L27.5095 13.2015L50.8927 26.8221ZM50.9276 24.4123L27.5444 10.6171L4.37058 24.3773V5.9721L27.6491 3.52738L50.9276 5.9721V24.4123Z" fill="black"/>
</g>
</svg>
