<svg width="161" height="66" viewBox="0 0 161 66" fill="none" xmlns="http://www.w3.org/2000/svg">
<path fill-rule="evenodd" clip-rule="evenodd" d="M48.9004 24.783C52.5489 28.757 60.5084 25.158 57.9252 19.861C56.2004 16.305 53.6162 17.13 51.7714 18.041C48.078 19.82 47.3795 23.088 48.9004 24.783ZM42.9785 22.002C45.3529 26.868 38.045 30.173 34.6923 26.523C33.2953 24.968 33.9378 21.963 37.3265 20.33C39.0223 19.494 41.3966 18.734 42.9785 22.002ZM155.017 50.7474L155.017 50.7474L154.975 50.751V50.807C152.561 68.171 128.805 71.038 128.214 57.406C127.945 51.239 139.799 49.456 151.596 48.318C151.805 42.9112 148.033 44.1234 143.452 45.5959C138.636 47.1437 132.926 48.979 130.003 43.717C124.988 34.692 144.625 25.779 146.719 27.615C153.068 33.1766 150.199 34.2063 145.53 35.8824L145.341 35.95C135.858 39.36 139.554 40.057 140.834 39.676C148.397 37.423 155.19 38.636 155.136 47.993C155.75 47.9419 156.353 47.9024 156.949 47.8634C157.601 47.8207 158.245 47.7784 158.89 47.722C161.194 47.507 161.355 50.157 158.729 50.374C157.509 50.5331 156.238 50.6424 155.018 50.7473L155.018 50.7473L155.018 50.7473L155.018 50.7473L155.017 50.7473L155.017 50.7473L155.017 50.7474ZM151.22 51.13C142.103 52.158 134.219 53.566 135.079 56.485C136.793 62.058 148.646 63.303 151.22 51.13ZM118.611 34.23C117.797 39.88 117.818 45.881 118.499 45.918C118.833 45.937 120.801 45.572 121.436 44.411C122.045 43.2932 122.612 41.754 123.206 40.1405C124.403 36.8907 125.711 33.3397 127.698 32.324C130.538 30.873 119.615 27.279 118.611 34.23ZM29.7657 62.666C21.8522 68.004 15.5566 66.825 17.5622 51.818C19.0112 40.914 16.6149 40.297 14.4424 42.376C11.5994 45.073 9.81759 52.099 9.76163 58.788C10.0197 60.3951 10.3545 61.9889 10.7649 63.564C11.0987 65.194 5.86134 66.879 2.79647 64.575C1.7392 63.79 0.902786 55.865 0.902786 45.131C0.902786 36.307 2.07297 30.236 3.13124 29.956C11.1547 27.765 12.4368 31.304 10.709 37.937C10.0218 40.5343 9.55548 43.1851 9.31494 45.861C10.9868 41.197 13.3831 37.376 16.1132 35.688C23.5241 31.024 29.7088 33.215 28.5386 42.489C26.533 59.069 26.3661 61.316 28.1488 60.024C30.3783 58.45 31.8263 61.262 29.7657 62.666ZM42.6398 65.142C48.046 65.761 53.6731 64.074 55.8466 60.59C57.6843 57.667 56.1804 56.655 54.0628 59.015C49.6059 64.131 44.9812 61.826 43.0315 56.655L43.5332 56.487C52.9486 52.721 58.8545 42.493 55.1221 36.704C49.9947 28.723 33.9488 35.86 31.9422 47.045C30.1035 57.386 34.8952 64.299 42.6398 65.142ZM42.251 53.172C48.102 49.013 50.0516 39.852 48.4358 37.267C46.709 34.57 43.3653 38.784 42.1951 49.013C42.0842 50.474 42.0842 51.878 42.251 53.172ZM77.9742 51.051C80.0358 50.376 82.3402 48.499 83.9361 45.992C84.3828 45.289 84.7585 44.657 85.2741 43.012C85.2117 43.2111 85.2356 43.1204 85.295 42.8953C85.4029 42.4862 85.6278 41.6335 85.6639 41.271C85.6639 41.215 85.7198 40.932 85.7758 40.822C86.9999 33.965 82.7669 30.086 76.9149 33.009C73.6282 34.638 69.5611 40.822 67.1098 47.51C67.7223 43.912 68.7806 40.484 69.9508 37.111C71.9564 31.154 68.224 28.119 61.8164 29.862C60.7572 30.143 58.8075 37.955 58.8075 46.779C58.8075 57.513 59.3651 63.695 60.4234 64.483C63.4873 66.843 68.9475 65.101 68.3909 63.527C68.1749 62.9291 68.0115 62.3284 67.8489 61.7303L67.8333 61.673C67.8333 61.504 67.8333 61.335 67.7783 61.167C66.718 54.196 70.7872 44.532 74.1299 41.946C75.0213 41.215 76.2464 41.721 76.4143 43.632C73.6842 44.981 72.7928 47.342 72.7928 48.353C72.7928 51.107 75.5779 51.781 77.9742 51.051Z" fill="black"/>
<path fill-rule="evenodd" clip-rule="evenodd" d="M114.031 27.161C113.55 29.6539 113.178 32.1666 112.917 34.692C111.859 44.752 112.305 53.688 113.529 57.678C114.255 59.815 116.984 62.624 119.603 59.701C122.444 56.498 125.566 58.352 121.776 62.117C119.437 64.422 115.091 65.995 110.744 65.545C107.624 65.152 105.73 63.13 104.615 60.04C104.171 60.938 103.668 61.725 103.056 62.342C100.938 64.535 98.374 65.772 95.0873 65.434C88.4549 64.704 84.5566 57.511 86.3944 47.281C88.345 36.49 97.7055 32.556 103.111 35.424C103.223 34.075 103.334 32.725 103.446 31.32C103.473 31.1795 103.487 31.039 103.5 30.8985C103.514 30.758 103.528 30.6175 103.555 30.477C101.911 30.8387 100.258 31.1575 98.5969 31.433C74.6385 35.423 82.8858 15.864 88.7357 10.75C95.3671 5.017 96.0906 8.895 94.0291 10.188C90.3516 12.548 88.7357 26.093 99.2664 26.093C100.994 26.093 102.61 25.981 104.225 25.812C107.514 7.49 117.487 -1.391 125.566 1.532C134.536 4.792 133.59 19.067 114.031 27.161ZM103.111 51.554C102.887 48.012 102.887 44.022 102.944 39.918C102.944 39.6576 102.959 39.3974 102.973 39.1449C102.987 38.9068 103 38.6754 103 38.457C99.6562 36.939 96.3694 42.11 95.532 49.249C94.5867 57.622 98.3181 62.062 100.437 60.04C102.052 58.409 102.888 53.237 103.111 51.554ZM127.18 8.389C125.397 5.747 118.879 8.951 115.09 22.721C124.619 18.167 128.407 10.299 127.18 8.389Z" fill="black"/>
</svg>
